<svg width="93" height="52" viewBox="0 0 93 52" fill="none" xmlns="http://www.w3.org/2000/svg">
<path d="M10.2904 4.99738L0.100467 34.8983C-0.42631 38.0422 1.16238 39.6281 3.83529 39.6281C6.5082 39.6281 8.98043 38.5634 10.0674 35.046L20.2992 4.99738H10.2904Z" fill="#FFD100"/>
<path d="M31.2973 34.4802L41.3758 4.77444C42.0726 2.1099 40.4672 0 37.7943 0C35.1214 0 32.6491 1.20406 31.5593 4.71312L21.2886 34.4802H31.2973Z" fill="#FFD100"/>
<path d="M21.0239 5.61896L25.2855 19.9757L20.4079 34.4328L16.1101 20.0816L21.0239 5.61896Z" fill="#FFD100"/>
<path d="M38.8284 25.6505L41.4065 36.7045L45.1804 25.6505H47.1732L42.5325 39.5446H40.2749L37.4989 28.5826L33.8811 39.5446H31.8521L36.4927 25.6505H38.8284Z" fill="#1F1F1F"/>
<path d="M46.139 39.5446H44.1406L48.8287 25.6505H50.8271L46.139 39.5446Z" fill="#1F1F1F"/>
<path d="M52.4297 25.6505H57.7867C59.0771 25.6505 61.1619 26.4532 61.3041 29.0146C61.4908 32.5209 59.2834 36.1136 58.3664 37.1086C56.9979 38.5858 55.6182 39.5446 53.0345 39.5446H47.7361L52.4241 25.6505H52.4297ZM50.3254 37.7441H53.6951C54.8824 37.7441 56.1617 37.2508 57.1902 35.8823C57.7086 35.2106 59.8102 31.6736 59.5008 29.3101C59.3112 28.0029 58.3636 27.2782 57.4299 27.2782H53.8735L50.3254 37.7441Z" fill="#1F1F1F"/>
<path d="M73.8131 25.6505L73.1721 27.3591H65.5352L64.1333 31.4506H71.274L70.7222 33.2372H63.5814L62.1209 37.7441H69.6602L69.0192 39.5446H59.4341L64.1165 25.6505H73.8131Z" fill="#1F1F1F"/>
<path d="M74.9279 25.6505H81.5279C82.7626 25.7118 83.9416 26.1076 84.0838 27.8663C84.1451 28.6217 84.1033 29.7755 83.5542 30.6619C82.8128 31.8687 82.1578 32.2979 81.1098 32.8554C81.4192 33.1787 81.9042 33.8783 81.6283 34.9513C80.9482 37.5546 80.3684 38.2012 80.8952 39.5446C80.9259 39.6199 78.9135 39.5446 78.9135 39.5446C78.7435 39.1154 78.7575 38.374 78.8968 37.9058C79.1086 37.2257 79.156 36.239 79.5657 35.2273C79.8751 34.2964 79.3093 33.725 78.4063 33.725H74.2617L72.2856 39.5446H70.2844L74.9307 25.6505H74.9279ZM74.7579 32.0387H79.0445C79.8249 32.0387 81.6478 31.2137 82.0993 29.4355C82.5731 28.1562 81.8484 27.3228 80.728 27.3284H76.3382L74.7579 32.0387Z" fill="#1F1F1F"/>
<path d="M93.0001 39.5446H91.0156V35.4725H86.2328L83.5376 39.5446H81.3748L90.7592 25.6505H92.9917L93.0001 39.5446ZM87.2362 33.9898H91.0212L91.0268 28.4572L87.2362 33.9898Z" fill="#1F1F1F"/>
<path d="M28.474 51.0723C28.8029 51.6158 29.4635 51.8945 30.4474 51.8945C31.3002 51.8945 32.2841 51.8555 33.0952 51.4374C33.923 51.0333 34.6114 50.4257 35.0183 49.2188C35.2803 48.4301 35.1047 47.8615 34.7675 47.4601C34.5752 47.2372 34.2296 47.0448 33.7502 46.9111L32.7551 46.6351C32.0806 46.4512 31.4284 46.2951 31.2696 46.1669C31.0327 45.9718 30.9936 45.6568 31.1776 45.2387C31.3393 44.8569 31.6235 44.5113 32.0193 44.227C32.4262 43.9399 32.9419 43.7922 33.5718 43.7922C34.3606 43.7922 35.0657 44.0152 35.2051 44.4639C35.2775 44.7092 35.2385 45.0715 35.0992 45.5314H36.1025C36.3478 44.4026 36.3004 43.7643 35.8991 43.3184C35.4977 42.8892 35.1159 42.7805 34.2742 42.7805C33.3795 42.7805 32.3454 42.9393 31.6208 43.4048C30.5839 44.0709 30.3916 44.6618 30.0683 45.4394C29.7589 46.1529 30.0237 46.6937 30.3749 47.0504C30.5839 47.265 31.002 47.449 31.6291 47.6302L32.5907 47.8921C33.1119 48.0343 33.7111 48.2015 33.909 48.4022C34.0902 48.6029 34.0874 48.9401 33.8812 49.4112C33.6164 50.0355 33.1091 50.4703 32.3649 50.7211C31.9775 50.8466 31.3504 50.9051 30.9407 50.9051C30.0404 50.9051 29.5332 50.6236 29.4189 50.0411C29.3576 49.7428 29.4189 49.3387 29.6084 48.8481H28.5967C28.1814 49.7819 28.1424 50.5232 28.474 51.0695" fill="#1F1F1F"/>
<path d="M72.9489 51.0723C73.2778 51.6158 73.93 51.8945 74.9223 51.8945C75.7723 51.8945 76.7562 51.8555 77.5729 51.4374C78.3839 51.0333 79.0835 50.4257 79.4877 49.2188C79.7524 48.4301 79.5685 47.8615 79.234 47.4601C79.0445 47.2372 78.7072 47.0448 78.2251 46.9111L77.2273 46.6351C76.5583 46.454 75.8978 46.2951 75.7417 46.1669C75.5048 45.9718 75.4713 45.6568 75.6441 45.2387C75.8086 44.8569 76.0929 44.5141 76.497 44.227C76.8928 43.9399 77.4112 43.7922 78.0495 43.7922C78.8355 43.7922 79.5378 44.0152 79.6744 44.4639C79.7441 44.7092 79.7106 45.0715 79.5685 45.5314H80.583C80.8199 44.4026 80.7698 43.7643 80.3656 43.3184C79.9698 42.8892 79.5768 42.7805 78.7463 42.7805C77.8376 42.7805 76.8175 42.9393 76.0901 43.4048C75.0505 44.0709 74.8637 44.6618 74.5376 45.4394C74.2338 46.1529 74.4902 46.6937 74.8498 47.0504C75.0505 47.265 75.4713 47.449 76.0984 47.6302L77.0628 47.8921C77.5868 48.0343 78.186 48.2015 78.3756 48.4022C78.5595 48.6029 78.5595 48.9401 78.3505 49.4112C78.0857 50.0355 77.5812 50.4703 76.8343 50.7239C76.4552 50.8466 75.8169 50.9051 75.4128 50.9051C74.5153 50.9051 74.0025 50.6236 73.8882 50.0411C73.8325 49.7428 73.8938 49.3387 74.0777 48.8481H73.066C72.6591 49.7819 72.6173 50.5232 72.9461 51.0695" fill="#1F1F1F"/>
<path d="M41.0971 51.6409L41.4594 50.6208H36.6264L37.6437 47.6775H42.0336L42.3847 46.6797H37.9921L38.9008 43.9427H43.6529L44.018 42.9979H38.2235L35.2217 51.6409H41.0971Z" fill="#1F1F1F"/>
<path d="M42.0391 51.6409L45.0409 42.9979H46.585L46.3341 50.3031L51.1392 42.9979H52.6666L49.6704 51.6409H48.6419L50.4145 46.5432C50.4814 46.362 50.579 46.0721 50.7295 45.6568C50.8716 45.2555 51.0333 44.8179 51.1922 44.3441L46.3982 51.6381H45.3279L45.576 44.3441L45.4784 44.6089C45.406 44.8263 45.3029 45.1496 45.1579 45.5788C45.013 46.0108 44.9099 46.3341 44.8402 46.5432L43.0675 51.6409H42.0391Z" fill="#1F1F1F"/>
<path d="M52.3016 51.6409L55.2978 42.9979H54.2108L51.209 51.6409H52.3016Z" fill="#1F1F1F"/>
<path d="M53.8262 51.6409L56.828 42.9979H57.9038L55.2588 50.6208H59.2863L58.9351 51.6409H53.8262Z" fill="#1F1F1F"/>
<path d="M59.5427 51.6409L62.5473 42.9979H63.6176L60.9809 50.6208H65.0056L64.6516 51.6409H59.5427Z" fill="#1F1F1F"/>
<path d="M70.8085 44.397V48.0956H68.3195L70.8085 44.397ZM65.9197 51.6437L67.6757 49.0516H70.8252L70.8196 51.6437H72.0265V43.0006H70.8057L64.8132 51.6437H65.917H65.9197Z" fill="#1F1F1F"/>
</svg>
